#!OML:ASF X:\für Bonn\!DataBase\2005_08_12_Daniel\c3d\Daniel.ASF
:FULLY-SPECIFIED
:DEGREES
216
root -0.191375 6.51879 -14.6553 324.42 25.5214 -2.90648
lowerback 76.7241 -6.97327 11.3399
upperback 12.3667 2.94725 -0.625792
thorax -5.86072 2.52584 -6.3168
lowerneck 3.99352 -5.91001 -3.75152
upperneck 17.3136 -8.63906 7.81524
head 5.04366 -3.91677 2.77469
rclavicle 6.36111e-015 3.10104e-014
rhumerus 24.3354 -30.4911 -116.718
rradius 6.92131
rwrist 120.884
rhand -37.7128 13.8181
rfingers 7.12502
rthumb -10.7623 -15.8862
lclavicle 6.36111e-015 3.10104e-014
lhumerus -13.0684 0.853624 92.5649
lradius 47.3518
lwrist -9.40387
lhand -11.8852 -8.66289
lfingers 7.12502
lthumb 14.1677 20.834
rfemur 163.799 40.7887 41.8351
rtibia 200.01
rfoot -144.662 -266.446
rtoes 14.9444
lfemur -43.6445 75.8052 57.8732
ltibia 156.954
lfoot -74.0667 -78.9272
ltoes 13.1628
217
root -0.19162 6.50511 -14.6466 324.476 25.6699 -2.91293
lowerback 76.3939 -6.93874 11.2807
upperback 12.4528 2.89139 -0.572012
thorax -5.81223 2.49647 -6.21788
lowerneck 3.7554 -5.97474 -3.8216
upperneck 17.2374 -8.73661 7.8889
head 5.07164 -3.96316 2.79682
rclavicle -3.02153e-014 3.65764e-014
rhumerus 25.1184 -33.3983 -118.287
rradius 7.04128
rwrist 124.017
rhand -38.3326 13.6315
rfingers 7.12502
rthumb -11.36 -16.0408
lclavicle -3.02153e-014 3.65764e-014
lhumerus -13.1357 1.08361 92.4892
lradius 47.4333
lwrist -9.37119
lhand -11.9118 -8.55935
lfingers 7.12502
lthumb 14.1419 20.9394
rfemur 164.143 40.7727 41.6188
rtibia 199.939
rfoot -154.208 -266.307
rtoes 15.2013
lfemur -44.0903 75.9679 57.6305
ltibia 157.027
lfoot -74.3741 -79.3203
ltoes 13.4635
218
root -0.191757 6.49345 -14.6376 324.537 25.8324 -2.89713
lowerback 76.1025 -6.91222 11.2103
upperback 12.516 2.82447 -0.530395
thorax -5.78723 2.46118 -6.12425
lowerneck 3.53321 -6.02541 -3.89252
upperneck 17.1395 -8.815 7.96913
head 5.08948 -4.00091 2.82244
rclavicle -3.65764e-014 8.11041e-014
rhumerus 26.0052 -36.2953 -119.95
rradius 7.19631
rwrist 127.08
rhand -38.901 13.3981
rfingers 7.12502
rthumb -11.9082 -16.2433
lclavicle -3.65764e-014 8.11041e-014
lhumerus -13.2705 1.28329 92.4003
lradius 47.5661
lwrist -9.25649
lhand -11.988 -8.3759
lfingers 7.12502
lthumb 14.0685 21.1279
rfemur 164.49 40.7531 41.4142
rtibia 199.878
rfoot -161.738 -266.044
rtoes 15.3782
lfemur -44.3905 76.0978 57.4824
ltibia 157.102
lfoot -75.0058 -79.6159
ltoes 13.7079
219
root -0.191808 6.48275 -14.6295 324.606 25.9882 -2.89568
lowerback 75.7971 -6.87696 11.1204
upperback 12.5962 2.75062 -0.478269
thorax -5.74643 2.42184 -6.00808
lowerneck 3.22188 -6.07063 -3.92228
upperneck 17.1074 -8.88498 8.01286
head 5.139 -4.03023 2.82689
rclavicle 8.74653e-014 -5.40694e-014
rhumerus 27.0612 -39.1184 -121.719
rradius 7.3672
rwrist 130.148
rhand -39.3535 13.1665
rfingers 7.12502
rthumb -12.3445 -16.4491
lclavicle 8.74653e-014 -5.40694e-014
lhumerus -13.3478 1.56622 92.3177
lradius 47.62
lwrist -9.24393
lhand -12.0842 -8.289
lfingers 7.12502
lthumb 13.9759 21.2212
rfemur 164.757 40.6903 41.1997
rtibia 199.813
rfoot -166.877 -265.73
rtoes 15.5754
lfemur -44.6427 76.258 57.3407
ltibia 157.167
lfoot -75.594 -79.8124
ltoes 13.7993
220
root -0.192462 6.47576 -14.6212 324.682 26.1349 -2.85622
lowerback 75.5451 -6.82703 11.0102
upperback 12.6553 2.68415 -0.440161
thorax -5.7251 2.38517 -5.90308
lowerneck 2.89666 -6.12931 -3.95597
upperneck 17.1111 -8.97295 8.04789
head 5.20322 -4.06732 2.8276
rclavicle 6.99722e-014 2.62396e-014
rhumerus 28.2882 -41.9318 -123.642
rradius 7.55497
rwrist 133.114
rhand -39.7501 13.0289
rfingers 7.12502
rthumb -12.7269 -16.5632
lclavicle 6.99722e-014 2.62396e-014
lhumerus -13.4319 1.8578 92.2452
lradius 47.6287
lwrist -9.27697
lhand -12.1834 -8.21381
lfingers 7.12502
lthumb 13.8802 21.303
rfemur 165.02 40.6965 41.0284
rtibia 199.756
rfoot -169.791 -265.458
rtoes 15.6535
lfemur -44.493 76.3804 57.4942
ltibia 157.205
lfoot -76.2855 -79.923
ltoes 13.9866
221
root -0.192607 6.47134 -14.6144 324.776 26.3041 -2.82325
lowerback 75.2932 -6.80826 10.9159
upperback 12.7023 2.59594 -0.416487
thorax -5.71662 2.33973 -5.81196
lowerneck 2.55009 -6.18375 -3.93337
upperneck 17.1584 -9.05482 8.05895
head 5.28092 -4.09739 2.81086
rclavicle -4.77083e-014 -2.38542e-015
rhumerus 29.6756 -44.7151 -125.729
rradius 7.80084
rwrist 135.997
rhand -40.0662 12.8956
rfingers 7.12502
rthumb -13.0316 -16.6773
lclavicle -4.77083e-014 -2.38542e-015
lhumerus -13.5062 2.01152 92.1238
lradius 47.5986
lwrist -9.1963
lhand -12.3391 -8.15563
lfingers 7.12502
lthumb 13.7302 21.3714
rfemur 165.187 40.6792 40.8471
rtibia 199.722
rfoot -171.567 -265.192
rtoes 15.6018
lfemur -45.0199 76.4531 56.8902
ltibia 157.226
lfoot -76.0494 -80.1063
ltoes 14.2463
222
root -0.192992 6.4697 -14.6092 324.857 26.4717 -2.7898
lowerback 75.0752 -6.7918 10.8071
upperback 12.7481 2.50053 -0.394597
thorax -5.7074 2.29108 -5.71331
lowerneck 2.17849 -6.23732 -3.84591
upperneck 17.2036 -9.12976 8.01638
head 5.3568 -4.12263 2.76605
rclavicle -2.8625e-014 -7.15625e-015
rhumerus 31.3244 -47.415 -128.057
rradius 8.04077
rwrist 138.781
rhand -40.3609 12.7627
rfingers 7.12502
rthumb -13.3156 -16.7919
lclavicle -2.8625e-014 -7.15625e-015
lhumerus -13.5129 2.2848 92.0275
lradius 47.4577
lwrist -9.17732
lhand -12.4663 -8.18187
lfingers 7.12502
lthumb 13.6076 21.3534
rfemur 165.293 40.6766 40.7124
rtibia 199.709
rfoot -172.103 -265.005
rtoes 15.5936
lfemur -45.6774 76.4721 56.0938
ltibia 157.238
lfoot -75.5816 -80.1611
ltoes 14.3698
223
root -0.193915 6.47118 -14.6059 324.945 26.6298 -2.741
lowerback 74.9104 -6.76938 10.6978
upperback 12.7689 2.41978 -0.376791
thorax -5.71993 2.24746 -5.62423
lowerneck 1.84336 -6.30072 -3.76321
upperneck 17.2303 -9.21757 7.97882
head 5.42213 -4.15525 2.72406
rclavicle -4.6118e-014 1.03368e-014
rhumerus 33.2702 -50.0869 -130.627
rradius 8.23813
rwrist 141.391
rhand -40.6405 12.6125
rfingers 7.12502
rthumb -13.5851 -16.9243
lclavicle -4.6118e-014 1.03368e-014
lhumerus -13.52 2.51078 91.931
lradius 47.2821
lwrist -9.20271
lhand -12.612 -8.20318
lfingers 7.12502
lthumb 13.4672 21.3414
rfemur 165.364 40.7152 40.6281
rtibia 199.716
rfoot -173.089 -264.893
rtoes 15.5617
lfemur -46.5717 76.4168 54.9549
ltibia 157.209
lfoot -74.6273 -80.264
ltoes 14.5471
224
root -0.194323 6.47803 -14.6029 325.03 26.7803 -2.68867
lowerback 74.7818 -6.74733 10.5576
upperback 12.7745 2.3205 -0.361103
thorax -5.75083 2.19246 -5.51774
lowerneck 1.50623 -6.32799 -3.67833
upperneck 17.2867 -9.25715 7.92565
head 5.49316 -4.16449 2.67912
rclavicle 6.83819e-014 1.51076e-014
rhumerus 35.4408 -52.6548 -133.439
rradius 8.46056
rwrist 143.85
rhand -40.8421 12.5015
rfingers 7.12502
rthumb -13.7795 -17.0222
lclavicle 6.83819e-014 1.51076e-014
lhumerus -13.4978 2.84839 91.8387
lradius 47.0355
lwrist -9.26509
lhand -12.7228 -8.23498
lfingers 7.12502
lthumb 13.3604 21.3167
rfemur 165.335 40.7911 40.6235
rtibia 199.762
rfoot -172.249 -264.873
rtoes 15.4583
lfemur -47.1984 76.3297 53.9721
ltibia 157.167
lfoot -73.5637 -80.1416
ltoes 14.6533
225
root -0.195008 6.48813 -14.6015 325.154 26.9281 -2.62931
lowerback 74.6455 -6.70996 10.392
upperback 12.783 2.21597 -0.346507
thorax -5.7817 2.13378 -5.40092
lowerneck 1.15577 -6.36377 -3.50978
upperneck 17.3372 -9.30162 7.80621
head 5.55834 -4.1748 2.59903
rclavicle 1.01778e-013 7.15625e-015
rhumerus 37.9807 -55.1019 -136.616
rradius 8.67659
rwrist 146.206
rhand -40.9104 12.3263
rfingers 7.12502
rthumb -13.8453 -17.1929
lclavicle 1.01778e-013 7.15625e-015
lhumerus -13.3979 3.2521 91.747
lradius 46.6854
lwrist -9.37519
lhand -12.8221 -8.32189
lfingers 7.12502
lthumb 13.2646 21.236
rfemur 165.236 40.9214 40.6502
rtibia 199.821
rfoot -171.224 -264.935
rtoes 15.4019
lfemur -48.2207 76.1961 52.5378
ltibia 157.101
lfoot -72.2997 -80.0095
ltoes 14.6946
226
root -0.195928 6.50376 -14.601 325.265 27.0773 -2.55955
lowerback 74.5956 -6.66336 10.1875
upperback 12.7339 2.10833 -0.318118
thorax -5.87509 2.06442 -5.25113
lowerneck 0.872919 -6.3696 -3.39703
upperneck 17.405 -9.3082 7.70779
head 5.6185 -4.16997 2.53904
rclavicle -4.05521e-014 1.82882e-014
rhumerus 40.8168 -57.4719 -140.05
rradius 8.84542
rwrist 148.46
rhand -40.9456 12.0729
rfingers 7.12502
rthumb -13.8792 -17.444
lclavicle -4.05521e-014 1.82882e-014
lhumerus -13.3505 3.74683 91.6879
lradius 46.3085
lwrist -9.53134
lhand -12.8735 -8.39578
lfingers 7.12502
lthumb 13.2151 21.1653
rfemur 165.061 41.0568 40.7416
rtibia 199.924
rfoot -169.387 -265.068
rtoes 15.1912
lfemur -49.0701 75.9794 51.1387
ltibia 156.976
lfoot -70.7738 -79.8562
ltoes 14.8551
